# xmcd
#
# Track frame offsets: 
#        150
#        16053
#        27840
#        38968
#        51395
#        62433
#        78116
#        93227
#        102181
#        116869
#        130475
#        143440
#        158621
#        171861
#        186456
#        198489
#        211452
#        223386
#        237385
#        249423
#        267048
#        280781
#        295825
#
# Disc length: 4104 seconds
#
# Revision: 0
# Processed by: cddbd v1.5.2PL0 Copyright (c) Steve Scherf et al.
# Submitted via: ExactAudioCopy v1.0b1
#
DISCID=4d100617
DTITLE=Etta James - Queen Of Soul
DYEAR=2012
DGENRE=R&B
TTITLE0=Bobby Is His Name (stereo)
TTITLE1=I Wish Someone Would Care (stereo)
TTITLE2=That Man Belongs Back Here With Me (stereo)
TTITLE3=Somewhere Out (stereo)
TTITLE4=Breaking Point (stereo)
TTITLE5=Flight 101 (stereo)
TTITLE6=Loving You More Every Day (stereo)
TTITLE7=Do Right (stereo)
TTITLE8=I Worry About You (stereo)
TTITLE9=Mellow Fellow (stereo)
TTITLE10=You Got Me Where You Want Me (mono)
TTITLE11=Only Time Will Tell (stereo)
TTITLE12=Pushover (mono)
TTITLE13=You Can't Talk To A Fool (stereo)
TTITLE14=Would It Make Any Difference To You (stereo)
TTITLE15=Stop The Wedding (mono)
TTITLE16=How Do You Speak To An Angel (stereo)
TTITLE17=Be Honest With Me (mono)
TTITLE18=Pay Back (stereo)
TTITLE19=Lover Man (Oh, Where Can You Be) (stereo)
TTITLE20=Two sides (To Every Story) (stereo)
TTITLE21=Tomorrow Night (stereo)
TTITLE22=I Can't Hold It In Anymore (mono)
EXTD=
EXTT0=
EXTT1=
EXTT2=
EXTT3=
EXTT4=
EXTT5=
EXTT6=
EXTT7=
EXTT8=
EXTT9=
EXTT10=
EXTT11=
EXTT12=
EXTT13=
EXTT14=
EXTT15=
EXTT16=
EXTT17=
EXTT18=
EXTT19=
EXTT20=
EXTT21=
EXTT22=
PLAYORDER=
